<svg xmlns="http://www.w3.org/2000/svg" viewBox="0 0 167.485 24.461"><defs><style>.a,.c{fill:#fff;}.a{font-size:19px;font-family:Roboto-Light, Roboto;font-weight:300;}.b{font-family:Roboto-Bold, Roboto;font-weight:700;}</style></defs><g transform="translate(-105.394 -14.492)"><text class="a" transform="translate(140.88 33.492)"><tspan x="0" y="0">Pineapple</tspan><tspan class="b" y="0">CARD</tspan></text><g transform="translate(105.394 14.492)"><g transform="translate(0)"><path class="c" d="M25.485,11.468,14.658.64a2.183,2.183,0,0,0-3.089,0L5.64,6.568a2.217,2.217,0,0,0,0,3.116l.983,1.01H8.89L6.774,8.551a.607.607,0,0,1-.17-.425.592.592,0,0,1,.17-.418l.783-.759,3.72,3.745h3.569L9.341,5.161,12.7,1.786a.591.591,0,0,1,.411-.176.573.573,0,0,1,.411.166L24.352,12.6a.577.577,0,0,1,.171.411.613.613,0,0,1-.187.411l-.614.6V16.29l1.748-1.732A2.186,2.186,0,0,0,25.485,11.468Z" transform="translate(-2.854)"/><path class="c" d="M18.642,21.328H3.329a2.225,2.225,0,0,0-2.238,2.178V29.3H20.8V23.506A2.156,2.156,0,0,0,18.642,21.328Zm-12.2,6a1.582,1.582,0,0,1-1.1-.445,1.589,1.589,0,1,1,0-2.29,1.589,1.589,0,1,1,1.1,2.735Z" transform="translate(-1.091 -9.619)"/><path class="c" d="M1.091,40.46a2.236,2.236,0,0,0,2.238,2.19H18.642A2.167,2.167,0,0,0,20.8,40.46v-.128H1.091Z" transform="translate(-1.091 -18.19)"/></g></g></g></svg>